<svg xmlns="http://www.w3.org/2000/svg" viewBox="0 0 100 100"><defs><linearGradient id="g" x1="0" y1="0" x2="1" y2="1"><stop offset="0%" stop-color="#3b82f6"/><stop offset="100%" stop-color="#8b5cf6"/></linearGradient><radialGradient id="shine" cx="0.25" cy="0.15" r="0.8"><stop offset="0%" stop-color="#ffffff" stop-opacity="0.28"/><stop offset="100%" stop-color="#ffffff" stop-opacity="0"/></radialGradient></defs><rect width="100" height="100" rx="24" fill="url(#g)"/><rect width="100" height="100" rx="24" fill="url(#shine)"/><g transform="translate(18.799999999999997,18.799999999999997) scale(2.6)" fill="none" stroke="#ffffff" stroke-width="1.6" stroke-linecap="round" stroke-linejoin="round"><path d="M10.5 3 8 9l4 13 4-13-2.5-6" /><path d="M17 3a2 2 0 0 1 1.6.8l3 4a2 2 0 0 1 .013 2.382l-7.99 10.986a2 2 0 0 1-3.247 0l-7.99-10.986A2 2 0 0 1 2.4 7.8l2.998-3.997A2 2 0 0 1 7 3z" /><path d="M2 9h20" /></g></svg>